<svg xmlns="http://www.w3.org/2000/svg" width="454.681" height="120mm" viewBox="0 0 426.264 425.197"><path d="M184.12 404.372L320.908 97.667l-50.095-85.21L70.549 76.515 10 237.716l174.122 166.656" fill="none" stroke="#000" stroke-width="20" stroke-linecap="round" stroke-linejoin="round"/><path style="line-height:normal;-inkscape-font-specification:Acquaintance;text-indent:0;text-align:start;text-decoration-line:none;text-transform:none;block-progression:tb;marker:none" d="M305.224 202.457c-.046 2.943-.06 5.883-.082 8.828l-.016 1.238-1.238.049c-2.937.096-5.888.13-8.844.146-.16 29.905-.072 59.797-.082 89.696v1.286l-1.286.017c-2.482.026-4.98.049-7.476.114l-1.352.032.016-1.352c.051-2.922.03-5.841-.032-8.746-10.144-.085-20.298-.137-30.442.033.013 10.104-.02 20.206 0 30.31 2.94.057 5.916.195 8.893-.016l1.629-.114-.244 1.613c-.426 2.918-.142 5.87-.13 8.795 2.806.147 5.632.175 8.469.18h1.205l.098 1.204c.47 6.247.238 12.52.342 18.796 2.915.12 5.85.167 8.779.196l1.27.016.017 1.27c.047 6.267.032 12.53.13 18.796 2.942.047 5.905.196 8.877.017l1.498-.082-.114 1.482c-.495 6.264-.066 12.58-.114 18.861 2.866.057 5.728.097 8.6.114h1.287l.016 1.287c.126 9.676.064 19.36.195 29.04 16.705.242 33.422.264 50.133.245 17.109-.026 34.214.117 51.322-.293-.273-9.652.591-19.299.196-28.943l-.05-1.385 1.385.033c2.872.08 5.748.024 8.6-.065.106-9.6.118-19.213.13-28.813v-1.189l1.173-.114c2.916-.279 5.857-.3 8.812-.277.071-10.752-.13-21.497.195-32.249v-.065c-.357-12.915-.104-25.843-.26-38.764a388.01 388.01 0 0 1-8.665-.05l-1.255-.016-.032-1.254c-.058-2.85-.095-5.716-.049-8.583-2.974-.087-5.929.006-8.877-.163l-1.14-.065-.081-1.14c-.21-2.963-.106-5.956-.147-8.959-6.303-.024-12.601.027-18.893-.065l-1.27-.016-.017-1.27a293.42 293.42 0 0 1-.049-8.551c-9.67-.512-19.366-.181-29.04-.294l-1.238-.016-.05-1.222c-.132-2.93-.185-5.868-.178-8.827-6.291-.03-12.58.02-18.861-.114l-1.255-.033-.016-1.254c-.124-13.017-.053-26.039-.098-39.058a648.45 648.45 0 0 0-5.033-.032c-1.25-.002-2.496.003-3.746.016l-1.335.017.016-1.336c.045-2.988.04-5.977-.244-8.942-6.652.02-13.3.04-19.952 0z" color="#000" font-weight="400" font-family="Acquaintance" overflow="visible" fill="#fff"/><path d="M305.243 202.36c6.652.039 13.304.026 19.956.006.319 3.336.306 6.69.24 10.033-6.762.065-13.518-.02-20.28.065.026-3.368.032-6.736.084-10.105zm-10.176 10.26c3.362-.019 6.73-.012 10.092-.156.006 37.194.065 74.389.026 111.583a229.6 229.6 0 0 1-10.164.006 300.75 300.75 0 0 1-.02-10c-3.368-.13-6.736-.111-10.104-.098-.11-3.4-.137-6.808-.007-10.209 3.362-.124 6.73-.085 10.099-.137.013-30.327-.085-60.655.078-90.988zm30.412.014c3.355-.046 6.71-.026 10.066.006.045 13.447-.046 26.9.097 40.348 6.71.175 13.421.078 20.132.11-.007 3.356 0 6.71.195 10.066 10.098.163 20.216-.241 30.308.293-.04 3.277-.02 6.554.052 9.831 6.723.124 13.453.046 20.183.072.046 3.368-.169 6.756.19 10.111 3.342.293 6.697.118 10.046.215a234.44 234.44 0 0 0 .058 9.851c3.31.059 6.626.085 9.949.059.156 12.932-.098 25.864.26 38.79-.326 10.763-.13 21.526-.202 32.288-3.336-.026-6.671-.039-9.98.372-.014 10-.02 20.007-.131 30.008-3.323.104-6.652.215-9.968.052-.378-10.177-.202-20.366-.104-30.549 3.342.033 6.69.033 10.04.006.006-23.649.025-47.292.038-70.941-3.342-.046-6.684-.04-10.026 0-.19-3.29.026-6.6-.241-9.884-3.316-.638-6.704-.247-10.053-.26-.072 10.144.117 20.287-.085 30.438-3.31.006-6.625.006-9.935.013-.228-13.532.006-27.064-.078-40.595-6.782-.04-13.564-.02-20.34 0 0 10.137.104 20.275-.013 30.405a246.86 246.86 0 0 1-10.072.007c-.065-13.519-.078-27.044.084-40.563-6.788-.032-13.57-.039-20.359.04-.072 13.505.052 27.01 0 40.516-3.394.098-6.795.104-10.19.007 0-30.367.02-60.74.079-91.113z" fill="#1c1c1c"/><path d="M254.42 293.7c10.144-.17 20.294-.117 30.438-.033.071 3.362.13 6.717.032 10.08-6.73.155-13.46.038-20.183.09-.248 6.698.358 13.415-.098 20.106-3.388.39-6.802.13-10.196.065-.02-10.105.02-20.203.007-30.308zm10.463 30.47c3.257-.501 6.567-.312 9.85-.22.072 3.38.079 6.768.046 10.156 3.388.02 6.77.013 10.157.059.078 6.743 0 13.486.039 20.229 3.342-.02 6.69-.013 10.04.032-.046 6.763.436 13.577-.254 20.307-3.297.3-6.6.066-9.89.014-.104-6.685-.091-13.37-.15-20.054-3.349-.02-6.698-.078-10.046-.215-.111-6.658.215-13.33-.391-19.968-3.238.013-6.483-.046-9.714-.215-.013-3.375-.456-6.802.313-10.124zm30.34 50.61c3.31-.261 6.639-.105 9.962-.086.09 6.73.006 13.46.026 20.184 3.374-.013 6.762-.013 10.144.104.065 6.73-.06 13.467.039 20.197 26.978.065 53.957.052 80.935.039.105-6.737-.026-13.473.046-20.216 3.453-.046 6.906-.092 10.359.104.547 10.098-.443 20.203-.156 30.314-17.109.41-34.217.26-51.326.287-16.71.02-33.422 0-50.126-.241-.137-10.105-.065-20.21-.215-30.308a554.943 554.943 0 0 1-9.89-.124c.052-6.75-.489-13.544.202-20.255z" fill="#1c1c1c"/></svg>