<svg xmlns="http://www.w3.org/2000/svg" width="453.495" height="454.649" viewBox="0 0 425.151 426.233"><g transform="translate(-171.22 -351.49)" stroke-linecap="round" stroke-linejoin="round"><circle cx="308.946" cy="490.286" r="123.744" fill="#fff" stroke="#8a8a8a" stroke-width="20"/><circle cx="446.97" cy="628.322" r="138.23" fill="none" stroke="#8a8a8a" stroke-width="22.341"/><path d="M307.462 363.99A123.744 123.744 0 0 0 183.72 487.734a123.744 123.744 0 0 0 123.742 123.744 123.744 123.744 0 0 0 .563-.02 138.23 138.23 0 0 0-.768 14.311 138.23 138.23 0 0 0 138.23 138.23 138.23 138.23 0 0 0 138.23-138.23 138.23 138.23 0 0 0-138.23-138.23 138.23 138.23 0 0 0-14.316.898 123.744 123.744 0 0 0 .035-.703A123.744 123.744 0 0 0 307.462 363.99z" fill="none" stroke="#000" stroke-width="25"/></g></svg>