<?xml version="1.0" encoding="UTF-8" standalone="no"?>
<!-- Created with Inkscape (http://www.inkscape.org/) -->

<svg
   xmlns:dc="http://purl.org/dc/elements/1.1/"
   xmlns:cc="http://creativecommons.org/ns#"
   xmlns:rdf="http://www.w3.org/1999/02/22-rdf-syntax-ns#"
   xmlns:svg="http://www.w3.org/2000/svg"
   xmlns="http://www.w3.org/2000/svg"
   xmlns:sodipodi="http://sodipodi.sourceforge.net/DTD/sodipodi-0.dtd"
   xmlns:inkscape="http://www.inkscape.org/namespaces/inkscape"
   width="120.30109mm"
   height="120mm"
   viewBox="0 0 426.26372 425.19688"
   id="svg2"
   version="1.1"
   inkscape:version="0.48.4 r9939"
   sodipodi:docname="draw_polygon.svg"
   inkscape:export-filename="/home/mario/repositories/ole4/img/rotate.png"
   inkscape:export-xdpi="16.818872"
   inkscape:export-ydpi="16.818872">
  <defs
     id="defs4" />
  <sodipodi:namedview
     id="base"
     pagecolor="#ffffff"
     bordercolor="#666666"
     borderopacity="1.0"
     inkscape:pageopacity="0.0"
     inkscape:pageshadow="2"
     inkscape:zoom="0.35"
     inkscape:cx="765.61351"
     inkscape:cy="221.49769"
     inkscape:document-units="px"
     inkscape:current-layer="layer1"
     showgrid="true"
     showguides="false"
     fit-margin-top="0"
     fit-margin-left="0"
     fit-margin-right="0"
     fit-margin-bottom="0"
     inkscape:window-width="1865"
     inkscape:window-height="1148"
     inkscape:window-x="55"
     inkscape:window-y="24"
     inkscape:window-maximized="1"
     inkscape:snap-center="true"
     inkscape:snap-grids="false"
     inkscape:snap-smooth-nodes="true"
     inkscape:object-nodes="true"
     inkscape:object-paths="true"
     inkscape:snap-bbox="true"
     inkscape:snap-to-guides="false">
    <inkscape:grid
       type="xygrid"
       id="grid3340"
       originx="-163.73629"
       originy="-269.88986" />
  </sodipodi:namedview>
  <metadata
     id="metadata7">
    <rdf:RDF>
      <cc:Work
         rdf:about="">
        <dc:format>image/svg+xml</dc:format>
        <dc:type
           rdf:resource="http://purl.org/dc/dcmitype/StillImage" />
        <dc:title></dc:title>
      </cc:Work>
    </rdf:RDF>
  </metadata>
  <g
     inkscape:label="Ebene 1"
     inkscape:groupmode="layer"
     id="layer1"
     transform="translate(-163.73629,-357.27551)">
    <path
       style="fill:none;stroke:#000000;stroke-width:20;stroke-linecap:round;stroke-linejoin:round;stroke-miterlimit:4;stroke-opacity:1;stroke-dasharray:none"
       d="M 340,772.3622 451.78652,511.37116 434.54824,369.73274 234.28571,433.79077 173.73603,594.99166 340,772.3622"
       id="path4150"
       inkscape:connector-curvature="0"
       sodipodi:nodetypes="cccccc"
       inkscape:export-xdpi="16.818872"
       inkscape:export-ydpi="16.818872" />
    <path
       d="m 439.22805,505.20692 c -0.0567,3.66085 -0.0738,7.3185 -0.10135,10.98289 l -0.0203,1.54004 -1.54004,0.0608 c -3.65413,0.11998 -7.32505,0.16099 -11.00318,0.18237 -0.19959,37.20529 -0.0892,74.39478 -0.10128,111.59181 l 0,1.60082 -1.60086,0.0203 c -3.08805,0.0321 -6.19536,0.0613 -9.30098,0.14184 l -1.68185,0.0405 0.0203,-1.68188 c 0.0635,-3.63567 0.0365,-7.26759 -0.0405,-10.88157 -12.62025,-0.10537 -25.25257,-0.17021 -37.87276,0.0405 0.0162,12.57155 -0.0243,25.13905 0,37.71061 3.65835,0.0703 7.36047,0.24118 11.06401,-0.0203 l 2.02636,-0.14185 -0.30398,2.0061 c -0.53003,3.63022 -0.17592,7.30396 -0.16211,10.94236 3.49183,0.18302 7.00739,0.21723 10.53709,0.2229 l 1.4995,0 0.12159,1.49951 c 0.5856,7.77186 0.29568,15.57555 0.4255,23.38423 3.6267,0.14817 7.27727,0.20717 10.92213,0.24316 l 1.58056,0.0203 0.0203,1.58056 c 0.0584,7.79661 0.0407,15.58919 0.16211,23.38423 3.66069,0.058 7.34704,0.24408 11.04365,0.0203 l 1.86425,-0.10132 -0.14187,1.84399 c -0.61531,7.79328 -0.0818,15.65051 -0.14182,23.46529 3.56497,0.0704 7.12638,0.12093 10.6992,0.14184 l 1.60079,0 0.0203,1.60083 c 0.15711,12.03771 0.0797,24.0853 0.24316,36.13005 20.78238,0.2999 41.58097,0.32827 62.37145,0.30395 21.28498,-0.0324 42.56575,0.1459 63.85073,-0.36474 -0.34043,-12.0078 0.73552,-24.00936 0.24316,-36.00847 l -0.0608,-1.72241 1.72238,0.0405 c 3.5723,0.10072 7.1505,0.0302 10.6992,-0.0811 0.13215,-11.94275 0.14674,-23.90244 0.16211,-35.84636 l 0,-1.47924 1.45898,-0.14185 c 3.62761,-0.34691 7.28615,-0.37325 10.96265,-0.34448 0.0891,-13.37686 -0.16036,-26.74517 0.24317,-40.12199 l 0,-0.0405 0,-0.0405 c -0.44405,-16.06782 -0.12982,-32.15147 -0.32422,-48.22744 -3.60531,0.0283 -7.20212,-0.009 -10.78025,-0.0608 l -1.56033,-0.0203 -0.0404,-1.5603 c -0.0721,-3.54544 -0.11756,-7.11178 -0.0608,-10.67894 -3.69946,-0.10796 -7.37622,0.008 -11.04365,-0.20263 l -1.41852,-0.0811 -0.10128,-1.41845 c -0.26015,-3.68637 -0.13215,-7.40974 -0.18234,-11.145 -7.84245,-0.0303 -15.67789,0.0335 -23.50581,-0.0811 l -1.58063,-0.0203 -0.0203,-1.58057 c -0.0608,-3.53983 -0.10291,-7.0809 -0.0608,-10.6384 -12.03037,-0.63687 -24.09322,-0.22462 -36.13001,-0.36475 l -1.54004,-0.0203 -0.0608,-1.51977 c -0.16457,-3.64556 -0.23104,-7.30122 -0.22293,-10.98289 -7.8263,-0.038 -15.64956,0.025 -23.46529,-0.14185 l -1.56033,-0.0405 -0.0203,-1.5603 c -0.15478,-16.19504 -0.0665,-32.39524 -0.12158,-48.59219 -2.08719,-0.0202 -4.17425,-0.0365 -6.2615,-0.0405 -1.55605,-0.003 -3.1062,0.004 -4.66057,0.0203 l -1.66168,0.0203 0.0203,-1.66161 c 0.0557,-3.71683 0.0494,-7.4355 -0.30392,-11.12474 -8.27586,0.0243 -16.54731,0.0486 -24.82298,0 z"
       id="path4109"
       style="font-size:medium;font-style:normal;font-variant:normal;font-weight:normal;font-stretch:normal;text-indent:0;text-align:start;text-decoration:none;line-height:normal;letter-spacing:normal;word-spacing:normal;text-transform:none;direction:ltr;block-progression:tb;writing-mode:lr-tb;text-anchor:start;color:#000000;fill:#ffffff;fill-opacity:1;fill-rule:nonzero;stroke:none;stroke-width:5;marker:none;visibility:visible;display:inline;overflow:visible;enable-background:accumulate;font-family:Acquaintance;-inkscape-font-specification:Acquaintance"
       inkscape:connector-curvature="0" />
    <path
       d="m 439.25249,505.08538 c 8.27566,0.0486 16.55133,0.0324 24.827,0.008 0.39716,4.14999 0.38095,8.32429 0.2999,12.48239 -8.41346,0.0811 -16.81881,-0.0243 -25.23227,0.0811 0.0324,-4.19052 0.0405,-8.38104 0.10537,-12.57156 z"
       id="path3016"
       style="fill:#1c1c1c"
       inkscape:connector-curvature="0" />
    <path
       d="m 426.59177,517.85147 c 4.18242,-0.0243 8.37293,-0.0162 12.55535,-0.19453 0.008,46.27402 0.0811,92.54804 0.0324,138.82207 -4.21484,0.0973 -8.42967,0.0973 -12.64451,0.008 -0.0811,-4.14188 -0.0811,-8.29187 -0.0243,-12.44186 -4.19052,-0.16211 -8.38104,-0.1378 -12.57156,-0.12159 -0.13779,-4.23104 -0.17021,-8.47019 -0.008,-12.70124 4.18241,-0.154 8.37293,-0.10537 12.56345,-0.17021 0.0162,-37.73088 -0.10537,-75.46176 0.0973,-113.20074 z"
       id="path3018"
       style="fill:#1c1c1c"
       inkscape:connector-curvature="0" />
    <path
       d="m 464.42802,517.86768 c 4.17431,-0.0567 8.34862,-0.0324 12.52292,0.008 0.0567,16.72966 -0.0567,33.46741 0.12159,50.19707 8.34861,0.21884 16.69723,0.0973 25.04584,0.13779 -0.008,4.17431 0,8.34861 0.24317,12.52292 12.56345,0.20264 25.15121,-0.2999 37.70656,0.36475 -0.0486,4.07704 -0.0243,8.15408 0.0648,12.23112 8.36483,0.15401 16.73776,0.0567 25.11069,0.0892 0.0567,4.19052 -0.21074,8.40536 0.23506,12.57967 4.1581,0.36474 8.3324,0.14589 12.49861,0.26747 -0.0648,4.08515 -0.0324,8.1703 0.0729,12.25545 4.11757,0.0729 8.24325,0.10537 12.37703,0.0729 0.19453,16.08932 -0.12158,32.17864 0.32422,48.25986 -0.40528,13.3902 -0.16211,26.78041 -0.25127,40.17062 -4.14999,-0.0324 -8.29998,-0.0486 -12.41755,0.46201 -0.0162,12.44187 -0.0243,24.89184 -0.16211,37.33371 -4.13378,0.12969 -8.27567,0.26748 -12.40134,0.0648 -0.47012,-12.66071 -0.25127,-25.33764 -0.12969,-38.00646 4.1581,0.0405 8.3243,0.0405 12.4905,0.008 0.008,-29.42279 0.0324,-58.83747 0.0486,-88.26026 -4.15809,-0.0567 -8.31619,-0.0486 -12.47429,0 -0.23506,-4.09325 0.0324,-8.21082 -0.2999,-12.29597 -4.12567,-0.79434 -8.34051,-0.30801 -12.50671,-0.32422 -0.0892,12.62019 0.1459,25.24038 -0.10537,37.86867 -4.11757,0.008 -8.24325,0.008 -12.36082,0.0162 -0.28369,-16.83502 0.008,-33.67004 -0.0973,-50.50507 -8.43778,-0.0486 -16.87555,-0.0243 -25.30522,0 0,12.61209 0.12968,25.22417 -0.0162,37.82815 -4.18242,0.0892 -8.35672,0.0892 -12.53103,0.008 -0.0811,-16.81881 -0.0973,-33.64573 0.10537,-50.46454 -8.44588,-0.0405 -16.88366,-0.0486 -25.32954,0.0486 -0.0892,16.8026 0.0648,33.6052 0,50.40781 -4.22294,0.12158 -8.45398,0.12968 -12.67692,0.008 0,-37.77951 0.0243,-75.56713 0.0973,-113.35474 z"
       id="path3020"
       style="fill:#1c1c1c"
       inkscape:connector-curvature="0" />
    <path
       d="m 376.02186,618.72381 c 12.62019,-0.21074 25.24848,-0.14589 37.86867,-0.0405 0.0892,4.18241 0.16211,8.35672 0.0405,12.53913 -8.37294,0.19453 -16.74587,0.0486 -25.11069,0.11348 -0.30801,8.3324 0.4458,16.68912 -0.12159,25.01342 -4.21483,0.48633 -8.46209,0.16211 -12.68503,0.0811 -0.0243,-12.57156 0.0243,-25.13501 0.008,-37.70657 z"
       id="path3026"
       style="fill:#1c1c1c"
       inkscape:connector-curvature="0" />
    <path
       d="m 389.03921,656.63301 c 4.05273,-0.62412 8.1703,-0.38906 12.25545,-0.27558 0.0892,4.20673 0.0973,8.42156 0.0567,12.6364 4.21483,0.0243 8.42156,0.0162 12.63639,0.0729 0.0973,8.38914 0,16.77828 0.0486,25.16742 4.15809,-0.0243 8.3243,-0.0162 12.4905,0.0405 -0.0567,8.41346 0.54306,16.89176 -0.31611,25.26469 -4.10136,0.37285 -8.21083,0.0811 -12.30408,0.0162 -0.12969,-8.31619 -0.11348,-16.63238 -0.18643,-24.94858 -4.1662,-0.0243 -8.3324,-0.0973 -12.4986,-0.26748 -0.13779,-8.28377 0.26748,-16.58375 -0.48633,-24.84321 -4.02841,0.0162 -8.06492,-0.0567 -12.08523,-0.26748 -0.0162,-4.19862 -0.56738,-8.46209 0.38906,-12.59587 z"
       id="path3030"
       style="fill:#1c1c1c"
       inkscape:connector-curvature="0" />
    <path
       d="m 426.7863,719.59616 c 4.11757,-0.32422 8.25946,-0.12969 12.39324,-0.10537 0.11348,8.37293 0.008,16.74586 0.0324,25.11069 4.19862,-0.0162 8.41346,-0.0162 12.62019,0.12969 0.0811,8.37293 -0.0729,16.75397 0.0486,25.1269 33.56468,0.0811 67.12935,0.0648 100.69403,0.0486 0.12969,-8.38104 -0.0324,-16.76207 0.0567,-25.15122 4.29589,-0.0567 8.59178,-0.11347 12.88767,0.12969 0.68085,12.56345 -0.55117,25.13501 -0.19453,37.71467 -21.28492,0.51064 -42.56984,0.32422 -63.85475,0.35664 -20.79049,0.0243 -41.58097,0 -62.36335,-0.2999 -0.17021,-12.57156 -0.0811,-25.14311 -0.26748,-37.70656 -4.10136,-0.008 -8.20272,-0.0729 -12.30408,-0.15401 0.0648,-8.39725 -0.6079,-16.85123 0.25127,-25.19985 z"
       id="path3038"
       style="fill:#1c1c1c"
       inkscape:connector-curvature="0" />
    <path
       inkscape:connector-curvature="0"
       style="fill:#ffffff;fill-opacity:1"
       id="path3128"
       d="m 438.95674,492.59893 c 8.27566,0.0486 16.55133,0.0324 24.827,0.008 0.39716,4.14999 0.38095,8.32429 0.2999,12.48239 -8.41346,0.0811 -16.81881,-0.0243 -25.23227,0.0811 0.0324,-4.19052 0.0405,-8.38104 0.10537,-12.57156 z" />
    <rect
       style="fill:#ffffff;fill-opacity:1;fill-rule:nonzero;stroke:#000000;stroke-width:0;stroke-linecap:round;stroke-linejoin:round;stroke-miterlimit:4;stroke-opacity:1;stroke-dasharray:none;stroke-dashoffset:0"
       id="rect3916"
       width="13.101009"
       height="141.24998"
       x="413.39359"
       y="489.80212" />
    <rect
       style="fill:#ffffff;fill-opacity:1;fill-rule:nonzero;stroke:#000000;stroke-width:0;stroke-linecap:round;stroke-linejoin:round;stroke-miterlimit:4;stroke-opacity:1;stroke-dasharray:none;stroke-dashoffset:0"
       id="rect3916-7"
       width="50.000004"
       height="13.101002"
       x="363.89053"
       y="605.58228" />
    <rect
       style="fill:#ffffff;fill-opacity:1;fill-rule:nonzero;stroke:#000000;stroke-width:0;stroke-linecap:round;stroke-linejoin:round;stroke-miterlimit:4;stroke-opacity:1;stroke-dasharray:none;stroke-dashoffset:0"
       id="rect3916-7-5"
       width="50.000008"
       height="25.61199"
       x="339.10825"
       y="656.62244" />
    <rect
       style="fill:#ffffff;fill-opacity:1;fill-rule:nonzero;stroke:#000000;stroke-width:0;stroke-linecap:round;stroke-linejoin:round;stroke-miterlimit:4;stroke-opacity:1;stroke-dasharray:none;stroke-dashoffset:0"
       id="rect3916-7-3"
       width="12.099998"
       height="50.065292"
       x="-400.75006"
       y="669.22876"
       transform="scale(-1,1)" />
  </g>
</svg>
